<svg xmlns="http://www.w3.org/2000/svg" xmlns:xlink="http://www.w3.org/1999/xlink" xmlns:fi="http://pattern.flaticon.com/" x="0" y="0" width="1100" height="550" viewBox="0 0 1100 550"><rect x="0px" y="0px" width="100%" height="100%" opacity="1" fill="#ffffff"/><defs><g transform="matrix(0.18808777630329132 0 0 0.18808777630329132 97 58)" id="L1_169"><path d="M80.627,30.365c0,0-7.682,43.532,17.07,68.285   c24.754,24.752,68.285,17.071,68.285,17.071s8.535-42.678-17.072-68.284C123.305,21.83,80.627,30.365,80.627,30.365z" id="L1_170" fill="#91dc5a"/><path d="M174.5,109V46c0-8.822,7.178-16,16-16h9c8.284,0,15-6.716,15-15s-6.716-15-15-15   h-9c-25.364,0-46,20.636-46,46v63H174.5z" id="XMLID_1160_" fill="#804c09"/><path d="M269.5,149c0-22.092-17.908-40-40-40c-0.42,0-0.836,0.019-1.253,0.031   C223.818,91.764,208.15,79,189.5,79c-11.951,0-22.67,5.248-30,13.557C152.17,84.248,141.451,79,129.5,79   c-18.65,0-34.318,12.764-38.747,30.031C90.336,109.019,89.92,109,89.5,109c-22.092,0-40,17.908-40,40s17.908,40,40,40   c1.271,0,2.525-0.066,3.766-0.182C84.836,196.151,79.5,206.949,79.5,219c0,22.092,17.908,40,40,40c1.899,0,3.765-0.142,5.593-0.397   c-3.549,5.974-5.593,12.945-5.593,20.397c0,22.092,17.908,40,40,40s40-17.908,40-40c0-7.452-2.044-14.424-5.593-20.397   c1.828,0.256,3.693,0.397,5.593,0.397c22.092,0,40-17.908,40-40c0-12.051-5.336-22.849-13.766-30.182   c1.24,0.115,2.495,0.182,3.766,0.182C251.592,189,269.5,171.092,269.5,149z" id="XMLID_1161_" fill="#91dc5a"/><path d="M159.5,92.557C152.17,84.248,141.451,79,129.5,79   c-18.65,0-34.318,12.764-38.747,30.031C90.336,109.019,89.92,109,89.5,109c-22.092,0-40,17.908-40,40s17.908,40,40,40   c1.271,0,2.525-0.066,3.766-0.182C84.836,196.151,79.5,206.949,79.5,219c0,22.092,17.908,40,40,40c1.899,0,3.765-0.142,5.593-0.397   c-3.549,5.974-5.593,12.945-5.593,20.397c0,22.092,17.908,40,40,40C159.5,275,159.5,148.5,159.5,92.557z" id="XMLID_1162_" fill="#64c37d"/></g><g transform="matrix(0.19999933242797852 0 0 0.19999933242797852 158.99999433595633 116)" id="L1_173"><path d="M248.874,1.365c0,0,7.682,43.532-17.07,68.285   c-24.754,24.752-68.285,17.071-68.285,17.071s-8.535-42.678,17.072-68.284C206.196-7.17,248.874,1.365,248.874,1.365z" id="XMLID_23_" fill="#91dc5a"/><path d="M201.095,108.336c-14.358-15.777-28.571-28.688-36.094-35.252V25   c0-8.284-6.716-15-15-15s-15,6.716-15,15v48.084c-7.523,6.563-21.736,19.475-36.094,35.252   C69.773,140.35,55.001,167.825,55.001,190v70h30v-70c0-24.126,36.594-64.858,64.936-90.17c7.401,6.669,18.208,16.872,28.97,28.697   c31.405,34.51,36.094,53.328,36.094,61.473v70h30v-70C245.001,167.825,230.229,140.35,201.095,108.336z" id="XMLID_1234_" fill="#804c09"/><g id="XMLID_1235_"><path d="M295.001,226.457c-0.548-22.999-19.351-41.479-42.483-41.479    c-8.267,0-15.977,2.367-22.505,6.449c-6.527-4.082-14.237-6.449-22.504-6.449c-23.478,0-42.508,19.032-42.508,42.509    c0,1.37,0.087,2.718,0.214,4.055c2.311,38.241,30.438,68.459,64.82,68.459c34.998,0,63.521-31.307,64.924-70.519    C294.99,228.819,295.001,226.457,295.001,226.457z" id="XMLID_1236_" fill="#ff5023"/><path d="M230.013,191.427c-6.527-4.082-14.237-6.449-22.504-6.449    c-23.478,0-42.508,19.032-42.508,42.509c0,1.37,0.087,2.718,0.214,4.055c2.311,38.241,30.438,68.459,64.82,68.459    C230.035,257.976,230.013,239.734,230.013,191.427z" id="XMLID_1237_" fill="#bd3c1a"/></g><path d="M150.001,10c-8.284,0-15,6.716-15,15v48.084   c-7.523,6.563-21.736,19.475-36.094,35.252C69.773,140.35,55.001,167.825,55.001,190v70h30v-70c0-24.126,36.658-64.858,65-90.17   C150.001,72.75,150.001,34.75,150.001,10z" id="XMLID_1238_" fill="#402604"/><g id="XMLID_1239_"><path d="M135.001,226.457c-0.548-22.999-19.351-41.479-42.483-41.479    c-8.267,0-15.977,2.367-22.505,6.449c-6.527-4.082-14.237-6.449-22.504-6.449c-23.477,0-42.508,19.032-42.508,42.509    c0,1.37,0.087,2.718,0.214,4.055C7.526,269.782,35.653,300,70.035,300c34.998,0,63.521-31.307,64.924-70.519    C134.99,228.819,135.001,226.457,135.001,226.457z" id="XMLID_1240_" fill="#ff5023"/><path d="M70.013,191.427c-6.527-4.082-14.237-6.449-22.504-6.449    c-23.477,0-42.508,19.032-42.508,42.509c0,1.37,0.087,2.718,0.214,4.055C7.526,269.782,35.653,300,70.035,300    C70.035,257.976,70.013,239.734,70.013,191.427z" id="XMLID_1241_" fill="#bd3c1a"/></g></g></defs><g fi:class="KUsePattern"><pattern id="pattern_L1_169" width="350" height="350" patternUnits="userSpaceOnUse"><use xlink:href="#L1_169" x="-350" y="-350"/><use xlink:href="#L1_169" x="0" y="-350"/><use xlink:href="#L1_169" x="350" y="-350"/><use xlink:href="#L1_169" x="-350" y="0"/><use xlink:href="#L1_169" x="0" y="0"/><use xlink:href="#L1_169" x="350" y="0"/><use xlink:href="#L1_169" x="-350" y="350"/><use xlink:href="#L1_169" x="0" y="350"/><use xlink:href="#L1_169" x="350" y="350"/></pattern><rect x="0" y="0" width="100%" height="100%" fill="url(#pattern_L1_169)"/></g><g fi:class="KUsePattern"><pattern id="pattern_L1_173" width="350" height="350" patternUnits="userSpaceOnUse"><use xlink:href="#L1_173" x="-350" y="-350"/><use xlink:href="#L1_173" x="0" y="-350"/><use xlink:href="#L1_173" x="350" y="-350"/><use xlink:href="#L1_173" x="-350" y="0"/><use xlink:href="#L1_173" x="0" y="0"/><use xlink:href="#L1_173" x="350" y="0"/><use xlink:href="#L1_173" x="-350" y="350"/><use xlink:href="#L1_173" x="0" y="350"/><use xlink:href="#L1_173" x="350" y="350"/></pattern><rect x="0" y="0" width="100%" height="100%" fill="url(#pattern_L1_173)"/></g></svg>